<svg width="187" height="247" viewBox="0 0 187 247" fill="none" xmlns="http://www.w3.org/2000/svg">
<path d="M34.6406 231L31.4375 219.797H33.0391L35.5234 228.711L38 219.797H39.6016L42.0781 228.711L44.5625 219.797H46.1641L42.9609 231H41.2031L38.8047 222.602L36.3984 231H34.6406ZM54.4844 227.625H48.9766V229.461H54.4844V231H48.9766C48.7682 231 48.5703 230.961 48.3828 230.883C48.1953 230.799 48.0312 230.69 47.8906 230.555C47.7552 230.414 47.6458 230.25 47.5625 230.062C47.4844 229.875 47.4453 229.674 47.4453 229.461V224.219C47.4453 224.005 47.4844 223.805 47.5625 223.617C47.6458 223.43 47.7552 223.268 47.8906 223.133C48.0312 222.992 48.1953 222.883 48.3828 222.805C48.5703 222.721 48.7682 222.68 48.9766 222.68H52.9453C53.1589 222.68 53.3594 222.721 53.5469 222.805C53.7344 222.883 53.8958 222.992 54.0312 223.133C54.1719 223.268 54.2812 223.43 54.3594 223.617C54.4427 223.805 54.4844 224.005 54.4844 224.219V227.625ZM48.9766 224.219V226.086H52.9453V224.219H48.9766ZM58.5859 219.477V231H57.0547V219.477H58.5859ZM62.6797 224.219V229.461H66.6484V228.055H68.1875V229.461C68.1875 229.674 68.1458 229.875 68.0625 230.062C67.9844 230.25 67.875 230.414 67.7344 230.555C67.599 230.69 67.4375 230.799 67.25 230.883C67.0625 230.961 66.862 231 66.6484 231H62.6797C62.4714 231 62.2734 230.961 62.0859 230.883C61.8984 230.799 61.7344 230.69 61.5938 230.555C61.4583 230.414 61.349 230.25 61.2656 230.062C61.1875 229.875 61.1484 229.674 61.1484 229.461V224.219C61.1484 224.005 61.1875 223.805 61.2656 223.617C61.349 223.43 61.4583 223.268 61.5938 223.133C61.7344 222.992 61.8984 222.883 62.0859 222.805C62.2734 222.721 62.4714 222.68 62.6797 222.68H66.6484C66.862 222.68 67.0625 222.721 67.25 222.805C67.4375 222.883 67.599 222.992 67.7344 223.133C67.875 223.268 67.9844 223.43 68.0625 223.617C68.1458 223.805 68.1875 224.005 68.1875 224.219V225.625H66.6484V224.219H62.6797ZM77.9531 229.461C77.9531 229.674 77.9115 229.875 77.8281 230.062C77.75 230.25 77.6406 230.414 77.5 230.555C77.3646 230.69 77.2031 230.799 77.0156 230.883C76.8333 230.961 76.6354 231 76.4219 231H72.2891C72.0807 231 71.8828 230.961 71.6953 230.883C71.5078 230.799 71.3438 230.69 71.2031 230.555C71.0677 230.414 70.9583 230.25 70.875 230.062C70.7969 229.875 70.7578 229.674 70.7578 229.461V224.219C70.7578 224.005 70.7969 223.805 70.875 223.617C70.9583 223.43 71.0677 223.268 71.2031 223.133C71.3438 222.992 71.5078 222.883 71.6953 222.805C71.8828 222.721 72.0807 222.68 72.2891 222.68H76.4219C76.6354 222.68 76.8333 222.721 77.0156 222.805C77.2031 222.883 77.3646 222.992 77.5 223.133C77.6406 223.268 77.75 223.43 77.8281 223.617C77.9115 223.805 77.9531 224.005 77.9531 224.219V229.461ZM72.2891 224.219V229.461H76.4219V224.219H72.2891ZM87.1172 224.219V231H85.5781V224.219H82.0547V231H80.5234V222.68H82.0547V224.148C82.0651 223.945 82.112 223.755 82.1953 223.578C82.2786 223.396 82.388 223.24 82.5234 223.109C82.6641 222.974 82.8255 222.87 83.0078 222.797C83.1901 222.719 83.3854 222.68 83.5938 222.68H85.5781C85.7812 222.68 85.974 222.719 86.1562 222.797C86.3385 222.87 86.5 222.974 86.6406 223.109C86.7812 223.24 86.8932 223.396 86.9766 223.578C87.0651 223.755 87.112 223.945 87.1172 224.148C87.1276 223.945 87.1719 223.755 87.25 223.578C87.3333 223.396 87.4427 223.24 87.5781 223.109C87.7188 222.974 87.8802 222.87 88.0625 222.797C88.2448 222.719 88.4401 222.68 88.6484 222.68H90.6328C90.8464 222.68 91.0469 222.721 91.2344 222.805C91.4219 222.883 91.5833 222.992 91.7188 223.133C91.8594 223.268 91.9688 223.43 92.0469 223.617C92.1302 223.805 92.1719 224.005 92.1719 224.219V231H90.6328V224.219H87.1172ZM101.781 227.625H96.2734V229.461H101.781V231H96.2734C96.0651 231 95.8672 230.961 95.6797 230.883C95.4922 230.799 95.3281 230.69 95.1875 230.555C95.0521 230.414 94.9427 230.25 94.8594 230.062C94.7812 229.875 94.7422 229.674 94.7422 229.461V224.219C94.7422 224.005 94.7812 223.805 94.8594 223.617C94.9427 223.43 95.0521 223.268 95.1875 223.133C95.3281 222.992 95.4922 222.883 95.6797 222.805C95.8672 222.721 96.0651 222.68 96.2734 222.68H100.242C100.456 222.68 100.656 222.721 100.844 222.805C101.031 222.883 101.193 222.992 101.328 223.133C101.469 223.268 101.578 223.43 101.656 223.617C101.74 223.805 101.781 224.005 101.781 224.219V227.625ZM96.2734 224.219V226.086H100.242V224.219H96.2734ZM108.344 219.797H117.305V221.398H113.625V231H112.023V221.398H108.344V219.797ZM125.297 229.461C125.297 229.674 125.255 229.875 125.172 230.062C125.094 230.25 124.984 230.414 124.844 230.555C124.708 230.69 124.547 230.799 124.359 230.883C124.177 230.961 123.979 231 123.766 231H119.633C119.424 231 119.227 230.961 119.039 230.883C118.852 230.799 118.688 230.69 118.547 230.555C118.411 230.414 118.302 230.25 118.219 230.062C118.141 229.875 118.102 229.674 118.102 229.461V224.219C118.102 224.005 118.141 223.805 118.219 223.617C118.302 223.43 118.411 223.268 118.547 223.133C118.688 222.992 118.852 222.883 119.039 222.805C119.227 222.721 119.424 222.68 119.633 222.68H123.766C123.979 222.68 124.177 222.721 124.359 222.805C124.547 222.883 124.708 222.992 124.844 223.133C124.984 223.268 125.094 223.43 125.172 223.617C125.255 223.805 125.297 224.005 125.297 224.219V229.461ZM119.633 224.219V229.461H123.766V224.219H119.633ZM138.602 231L134.422 222.789V231H132.82V219.797H134.57L138.836 228.234L143.109 219.797H144.852V231H143.258V222.789L139.078 231H138.602ZM148.148 234.359L149.891 230.25L146.625 222.68H148.242L150.672 228.406L153.102 222.68H154.719L149.68 234.359H148.148ZM61.4062 247L58.2031 235.797H59.8047L62.2891 244.711L64.7656 235.797H66.3672L68.8438 244.711L71.3281 235.797H72.9297L69.7266 247H67.9688L65.5703 238.602L63.1641 247H61.4062ZM81.25 243.625H75.7422V245.461H81.25V247H75.7422C75.5339 247 75.3359 246.961 75.1484 246.883C74.9609 246.799 74.7969 246.69 74.6562 246.555C74.5208 246.414 74.4115 246.25 74.3281 246.062C74.25 245.875 74.2109 245.674 74.2109 245.461V240.219C74.2109 240.005 74.25 239.805 74.3281 239.617C74.4115 239.43 74.5208 239.268 74.6562 239.133C74.7969 238.992 74.9609 238.883 75.1484 238.805C75.3359 238.721 75.5339 238.68 75.7422 238.68H79.7109C79.9245 238.68 80.125 238.721 80.3125 238.805C80.5 238.883 80.6615 238.992 80.7969 239.133C80.9375 239.268 81.0469 239.43 81.125 239.617C81.2083 239.805 81.25 240.005 81.25 240.219V243.625ZM75.7422 240.219V242.086H79.7109V240.219H75.7422ZM91.1797 245.461C91.1797 245.674 91.138 245.875 91.0547 246.062C90.9766 246.25 90.8672 246.414 90.7266 246.555C90.5911 246.69 90.4297 246.799 90.2422 246.883C90.0547 246.961 89.8542 247 89.6406 247H85.3516C85.1432 247 84.9453 246.961 84.7578 246.883C84.5703 246.799 84.4062 246.69 84.2656 246.555C84.1302 246.414 84.0208 246.25 83.9375 246.062C83.8594 245.875 83.8203 245.674 83.8203 245.461V235.477H85.3516V240.148C85.362 239.945 85.4089 239.755 85.4922 239.578C85.5755 239.396 85.6849 239.24 85.8203 239.109C85.9609 238.974 86.1224 238.87 86.3047 238.797C86.487 238.719 86.6823 238.68 86.8906 238.68H89.6406C89.8542 238.68 90.0547 238.721 90.2422 238.805C90.4297 238.883 90.5911 238.992 90.7266 239.133C90.8672 239.268 90.9766 239.43 91.0547 239.617C91.138 239.805 91.1797 240.005 91.1797 240.219V245.461ZM85.3516 240.219V245.461H89.6406V240.219H85.3516ZM98.7656 245.461V243.531H95.1172C94.9036 243.531 94.7031 243.492 94.5156 243.414C94.3281 243.331 94.1641 243.221 94.0234 243.086C93.888 242.945 93.7786 242.781 93.6953 242.594C93.6172 242.406 93.5781 242.206 93.5781 241.992V240.219C93.5781 240.005 93.6172 239.805 93.6953 239.617C93.7786 239.43 93.888 239.268 94.0234 239.133C94.1641 238.992 94.3281 238.883 94.5156 238.805C94.7031 238.721 94.9036 238.68 95.1172 238.68H99.9844V240.219H95.1172V241.992H98.7656C98.9792 241.992 99.1771 242.034 99.3594 242.117C99.5469 242.195 99.7109 242.305 99.8516 242.445C99.9922 242.581 100.102 242.742 100.18 242.93C100.263 243.117 100.305 243.318 100.305 243.531V245.461C100.305 245.674 100.263 245.875 100.18 246.062C100.102 246.25 99.9922 246.414 99.8516 246.555C99.7109 246.69 99.5469 246.799 99.3594 246.883C99.1771 246.961 98.9792 247 98.7656 247H93.5781V245.461H98.7656ZM104.328 238.68V247H102.789V238.68H104.328ZM102.711 235.477H104.406V237.078H102.711V235.477ZM106.492 238.68H108.523V236.117H110.062V238.68H112.797V240.219H110.062V245.461H112.797V247H110.062C109.854 247 109.656 246.961 109.469 246.883C109.281 246.799 109.117 246.69 108.977 246.555C108.836 246.414 108.724 246.25 108.641 246.062C108.562 245.875 108.523 245.674 108.523 245.461V240.219H106.492V238.68ZM122.406 243.625H116.898V245.461H122.406V247H116.898C116.69 247 116.492 246.961 116.305 246.883C116.117 246.799 115.953 246.69 115.812 246.555C115.677 246.414 115.568 246.25 115.484 246.062C115.406 245.875 115.367 245.674 115.367 245.461V240.219C115.367 240.005 115.406 239.805 115.484 239.617C115.568 239.43 115.677 239.268 115.812 239.133C115.953 238.992 116.117 238.883 116.305 238.805C116.492 238.721 116.69 238.68 116.898 238.68H120.867C121.081 238.68 121.281 238.721 121.469 238.805C121.656 238.883 121.818 238.992 121.953 239.133C122.094 239.268 122.203 239.43 122.281 239.617C122.365 239.805 122.406 240.005 122.406 240.219V243.625ZM116.898 240.219V242.086H120.867V240.219H116.898ZM125.539 242.844L124.898 235.797H127.07L126.43 242.844H125.539ZM124.812 244.664H127.148V247H124.812V244.664Z" fill="black"/>
<g clip-path="url(#clip0_33_128)">
<path d="M136.216 71.4647L135.978 66.0957C135.953 66.0825 135.928 66.0694 135.903 66.0564C133.349 64.7138 130.423 67.1441 131.238 69.9156C132.006 72.5233 132.521 75.3345 133.926 77.617C134.756 78.9427 135.873 80.0643 137.195 80.8987C138.516 81.7331 140.008 82.2588 141.56 82.4369L144.804 84.4272C145.25 81.9405 145.151 79.3867 144.517 76.9417C143.882 74.4967 142.726 72.2187 141.128 70.2645C140.22 69.1771 139.18 68.2086 138.031 67.3817C137.254 69.4345 136.216 71.4647 136.216 71.4647Z" fill="#F2F2F2"/>
<path d="M60.692 146.272C54.4456 139.818 45.3937 136.116 35.8573 136.116L35.4895 136.117C29.2081 136.12 23.0388 134.45 17.6126 131.28L17.048 130.951L17.5027 130.481C19.9648 127.929 22.0207 125.013 23.5983 121.834C22.4778 122.881 21.1415 123.668 19.6838 124.14C18.2261 124.612 16.6828 124.757 15.163 124.565C13.5584 124.373 12.018 123.82 10.6573 122.947C9.29656 122.073 8.15086 120.903 7.30612 119.523C3.97306 114.104 0 106.416 0 100.559C0.00518843 95.6083 1.03977 90.713 3.03779 86.1852C5.03582 81.6574 7.95345 77.5963 11.6047 74.2608C13.9163 72.1724 15.7627 69.6195 17.0234 66.7682C18.2842 63.917 18.931 60.8316 18.9218 57.7131L18.92 57.2693C18.9194 53.1636 19.4201 49.0732 20.4111 45.0894L20.5117 44.6871L20.9248 44.7016C23.5888 44.7924 26.2543 44.5687 28.866 44.035C26.4162 43.7339 24.0196 43.0953 21.7441 42.1371L21.2997 41.957L21.4505 41.5007C31.8474 35.051 55.316 38.391 68.9379 7.16486C79.9834 -18.1553 118.956 29.6416 118.956 57.2693C118.956 60.0884 116.171 63.8137 118.256 65.677C140.789 85.8191 125.241 98.7531 120.339 111.768C119.176 114.856 121.698 118.246 121.698 121.586C121.698 122.153 121.684 122.738 121.655 123.326L121.612 124.228L120.86 123.727C119.374 122.752 117.996 121.619 116.751 120.35C118.043 123.329 118.652 126.561 118.533 129.808C118.414 133.054 117.57 136.233 116.063 139.109C113.701 143.575 111.417 146.772 109.273 148.611C102.404 154.5 93.5491 157.538 84.519 157.104C75.4889 156.669 66.9656 152.794 60.692 146.272Z" fill="#00FF00"/>
<path d="M79.4684 290.5C79.6219 290.5 79.7702 290.444 79.8862 290.343C80.0021 290.243 80.0778 290.103 80.0994 289.951C80.1266 289.76 82.7825 270.568 80.3972 245.06C78.1942 221.504 71.1198 187.574 49.9275 159.708C49.8767 159.641 49.8133 159.584 49.7409 159.542C49.6684 159.5 49.5883 159.472 49.5052 159.461C49.422 159.45 49.3375 159.455 49.2564 159.476C49.1753 159.498 49.0992 159.535 49.0325 159.586C48.9658 159.637 48.9097 159.7 48.8675 159.773C48.8254 159.846 48.7979 159.926 48.7868 160.009C48.7756 160.093 48.7809 160.177 48.8024 160.259C48.8239 160.34 48.8612 160.416 48.9122 160.483C69.9214 188.108 76.9388 221.789 79.1262 245.18C81.4977 270.538 78.8626 289.581 78.8357 289.771C78.8229 289.861 78.8296 289.954 78.8556 290.042C78.8815 290.129 78.926 290.211 78.9859 290.28C79.0459 290.349 79.1201 290.405 79.2033 290.443C79.2865 290.481 79.3769 290.5 79.4684 290.5V290.5Z" fill="#3F3D56"/>
<path d="M147.602 0.686031C147.612 0.551311 147.579 0.416941 147.508 0.302181C147.437 0.187421 147.331 0.0981635 147.207 0.0472192C147.082 -0.00372512 146.944 -0.0137401 146.813 0.0186001C146.682 0.0509403 146.565 0.123974 146.478 0.22724C146.417 0.300079 140.287 7.64455 135.219 18.9208C130.535 29.3448 125.815 45.37 129.932 62.5169C129.971 62.6818 130.074 62.8242 130.219 62.9127C130.363 63.0013 130.537 63.0287 130.701 62.9891C130.866 62.9494 131.008 62.8459 131.096 62.7013C131.185 62.5566 131.212 62.3827 131.173 62.2179C127.141 45.4222 131.781 29.688 136.383 19.4459C141.378 8.33058 147.394 1.1232 147.454 1.05168C147.541 0.948644 147.593 0.820608 147.602 0.686031V0.686031Z" fill="#3F3D56"/>
<path d="M145.812 7.98553C146.35 12.3386 149.361 15.9277 153.739 15.9277C155.841 15.9277 157.857 15.091 159.344 13.6015C160.83 12.1121 161.665 10.0919 161.665 7.98553C161.665 3.59918 158.098 0.448869 153.739 0.0433309C149.113 -0.386972 145.12 2.39676 145.812 7.98553Z" fill="#2F2E41"/>
<path d="M151.527 30.2998L154.545 30.2995L155.981 18.6336L151.526 18.6339L151.527 30.2998Z" fill="#FFB6B6"/>
<path d="M120.964 213.113L130.247 213.112V212.995C130.247 212.035 129.866 211.114 129.188 210.435C128.511 209.756 127.592 209.375 126.634 209.375H126.633L124.938 208.086L121.774 209.375L120.964 209.375L120.964 213.113Z" fill="#2F2E41"/>
<path d="M109.18 209.958L112.198 209.957L113.634 198.291L109.179 198.292L109.18 209.958Z" fill="#FFB6B6"/>
<path d="M109.074 213.113L118.356 213.112V212.995C118.356 212.035 117.975 211.114 117.298 210.435C116.62 209.756 115.701 209.375 114.743 209.375H114.743L113.047 208.086L109.884 209.375L109.073 209.375L109.074 213.113Z" fill="#2F2E41"/>
<path d="M131.458 136.892L133.592 144.223L131.078 175.273C131.078 175.273 132.373 177.214 131.458 177.214C130.543 177.214 129.37 177.645 130.109 178.804C130.848 179.963 128.323 184.125 128.323 184.125L124.751 206.234L120.199 206.166C120.199 206.166 117.885 204.875 119.184 203.569C120.482 202.262 121.397 202.262 120.177 201.041C118.958 199.819 118.958 200.187 118.958 199.239C118.958 198.291 117.736 186.71 120.633 182.267L119.76 164.155L117.704 181.921L113.47 205.623L109.085 205.586C109.085 205.586 107.06 203.631 107.064 202.183C107.067 200.735 108.315 200.615 107.386 199.759C106.458 198.902 106.458 185.748 109.202 178.436C109.202 178.436 110.754 174.351 109.198 172.951C107.642 171.551 109.196 169.949 109.196 169.949C109.196 169.949 111.66 169.057 109.194 166.485C106.728 163.914 109.181 145.729 109.181 145.729C109.181 145.729 106.485 138.388 109.215 135.502C111.946 132.615 131.458 136.892 131.458 136.892Z" fill="#2F2E41"/>
<path d="M93.447 149.523L97.2547 140.303L100.255 141.973L98.443 151.352C98.6244 151.946 98.6369 152.579 98.4789 153.18C98.3209 153.781 97.9987 154.326 97.5487 154.753C97.0986 155.181 96.5384 155.474 95.9311 155.6C95.3238 155.726 94.6935 155.68 94.111 155.467C93.5285 155.253 93.0169 154.882 92.6337 154.393C92.2506 153.904 92.011 153.318 91.942 152.701C91.873 152.083 91.9773 151.459 92.2432 150.897C92.5091 150.336 92.9259 149.86 93.447 149.523V149.523Z" fill="#FFB6B6"/>
<path d="M157.342 76.6165L151.549 84.7321L149.004 82.4246L152.89 73.7009C152.847 73.081 152.979 72.4615 153.268 71.9121C153.558 71.3628 153.995 70.9053 154.53 70.5911C155.065 70.2769 155.677 70.1184 156.297 70.1336C156.917 70.1487 157.521 70.3368 158.04 70.6768C158.559 71.0167 158.973 71.495 159.236 72.0579C159.498 72.6207 159.599 73.2459 159.527 73.863C159.454 74.4801 159.211 75.0648 158.826 75.5512C158.44 76.0376 157.926 76.4065 157.342 76.6165V76.6165Z" fill="#FFB6B6"/>
<path d="M132.033 137.644C135.791 143.484 116.901 150.895 109.653 147.92C108.384 147.399 104.018 145.678 107.002 143.292C109.987 140.906 106.657 140.57 106.578 139.017C106.525 137.979 107.328 135.701 106.49 135.799C105.653 135.896 104.673 134.46 106.497 133.843C108.32 133.225 106.516 132.661 106.532 132.075C106.706 125.673 111.608 115.492 111.608 115.492L102.776 138.114C102.776 138.114 102.841 142.027 101.714 140.831C100.588 139.635 100.67 143.506 100.67 143.506C100.67 143.506 98.9952 144.677 99.9583 145.329C100.921 145.981 98.9214 147.985 98.9214 147.985L94.2547 147.651C94.2547 147.651 94.3278 144.178 95.1246 143.409C95.9214 142.641 95.53 141.433 95.53 141.433C95.53 141.433 97.6046 139.593 96.2137 138.099C94.425 136.177 100.947 103.724 103.197 104.045C103.516 102.494 104.256 101.061 105.336 99.9042C106.417 98.7478 107.795 97.9132 109.32 97.4927L114.36 96.1022L115.255 92.5443H122.352L123.588 94.8821L128.984 97.3218C130 95.885 130.76 94.371 134.922 93.8802C134.922 93.8802 146.136 83.6571 145.589 82.8588C145.041 82.0606 146.779 80.1917 146.779 80.1917C146.779 80.1917 148.264 79.7049 147.426 79.445C146.589 79.1851 148.172 78.5841 148.172 78.5841C148.172 78.5841 149.639 78.198 148.947 77.6896C148.255 77.1812 151.255 76.8472 151.255 76.8472L155.148 80.0292L154.361 81.3658C154.361 81.3658 154.841 83.1857 154.215 82.5213C153.589 81.8569 153.471 83.7851 153.471 83.7851C153.471 83.7851 153.151 85.8965 151.255 86.5326C149.36 87.1687 147.922 93.2122 147.922 93.2122C143.451 99.0367 138.175 103.58 131.922 106.571C134.359 109.374 132.033 137.644 132.033 137.644Z" fill="#119E79"/>
<path d="M118.275 90.4621C122.157 90.4621 125.304 87.3089 125.304 83.4193C125.304 79.5296 122.157 76.3765 118.275 76.3765C114.393 76.3765 111.246 79.5296 111.246 83.4193C111.246 87.3089 114.393 90.4621 118.275 90.4621Z" fill="#FFB6B6"/>
<path d="M110.996 84.1866C111.219 85.717 112.52 87.8522 112.216 87.8522C111.911 87.8522 109.743 81.5432 111.911 81.1319C113.483 80.8335 113.835 81.0952 115.304 80.4568L115.097 80.6523C116.069 81.361 117.423 80.9241 118.533 80.4629C119.646 80.0047 120.996 79.5679 121.972 80.2735C122.585 80.7164 122.844 81.4862 123.225 82.1399C123.606 82.7967 124.31 83.4168 125.036 83.2152C125.618 83.0533 125.954 82.3995 125.951 81.7947C125.947 81.1899 125.161 80.6145 125.426 80.0719C126.211 78.4638 125.505 77.3676 123.795 76.6109C123.173 76.5162 122.551 76.4195 121.929 76.3207C122.255 75.8684 122.65 75.4705 123.1 75.1416C122.91 74.6535 122.581 74.2319 122.155 73.9289C121.658 73.6326 121.042 73.654 120.466 73.6845C119.179 73.7517 117.894 73.8189 116.609 73.8861C115.658 73.935 114.673 73.993 113.822 74.4299C112.761 74.9767 112.066 76.0427 111.56 77.1272C110.426 79.5648 110.606 81.5259 110.996 84.1866Z" fill="#2F2E41"/>
<path d="M81.7547 213.906L150.887 214C150.983 214 151.075 213.962 151.143 213.893C151.211 213.825 151.25 213.733 151.25 213.636C151.25 213.54 151.211 213.447 151.143 213.379C151.075 213.311 150.983 213.273 150.887 213.273L81.7547 213.179C81.6585 213.179 81.5661 213.217 81.498 213.285C81.43 213.353 81.3917 213.446 81.3917 213.542C81.3917 213.639 81.43 213.731 81.498 213.8C81.5661 213.868 81.6585 213.906 81.7547 213.906V213.906Z" fill="#CACACA"/>
<path d="M56.7515 182.201C56.8789 181.324 55.9615 180.463 54.7023 180.28C53.4432 180.096 52.3191 180.659 52.1917 181.536C52.0643 182.414 52.9817 183.274 54.2408 183.458C55.5 183.641 56.624 183.079 56.7515 182.201Z" fill="#E6E6E6"/>
<path d="M71.7429 180.735C71.8704 179.858 70.953 178.998 69.6938 178.814C68.4347 178.631 67.3106 179.193 67.1832 180.071C67.0557 180.948 67.9732 181.809 69.2323 181.992C70.4914 182.176 71.6155 181.613 71.7429 180.735Z" fill="#3F3D56"/>
<path d="M52.6463 170.041C52.7738 169.163 51.8564 168.303 50.5972 168.12C49.3381 167.936 48.214 168.499 48.0866 169.376C47.9591 170.254 48.8766 171.114 50.1357 171.298C51.3948 171.481 52.5189 170.919 52.6463 170.041Z" fill="#FF6584"/>
<path d="M46.1322 165.06C46.1382 164.254 45.6897 163.598 45.1303 163.593C44.5709 163.589 44.1125 164.239 44.1064 165.045C44.1003 165.85 44.5489 166.507 45.1083 166.511C45.6677 166.515 46.1261 165.866 46.1322 165.06Z" fill="#E6E6E6"/>
<path d="M43.9231 155.782C43.9291 154.977 43.4806 154.32 42.9212 154.316C42.3618 154.312 41.9034 154.961 41.8973 155.767C41.8912 156.573 42.3398 157.229 42.8992 157.234C43.4586 157.238 43.917 156.588 43.9231 155.782Z" fill="#3F3D56"/>
<path d="M61.1016 172.11C61.1077 171.305 60.6592 170.648 60.0998 170.644C59.5404 170.64 59.082 171.289 59.0759 172.095C59.0698 172.901 59.5184 173.557 60.0778 173.561C60.6372 173.566 61.0956 172.916 61.1016 172.11Z" fill="#E6E6E6"/>
<path d="M53.8571 175.734C53.8632 174.929 53.4147 174.272 52.8553 174.268C52.2959 174.264 51.8375 174.913 51.8314 175.719C51.8253 176.525 52.2738 177.181 52.8332 177.186C53.3926 177.19 53.8511 176.54 53.8571 175.734Z" fill="#FF6584"/>
<path d="M63.9418 182.433C63.9478 181.627 63.4993 180.97 62.9399 180.966C62.3805 180.962 61.9221 181.612 61.916 182.417C61.9099 183.223 62.3585 183.88 62.9179 183.884C63.4773 183.888 63.9357 183.238 63.9418 182.433Z" fill="#3F3D56"/>
<path d="M171.997 135.159C172.124 134.281 171.207 133.421 169.948 133.237C168.688 133.054 167.564 133.617 167.437 134.494C167.309 135.372 168.227 136.232 169.486 136.416C170.745 136.599 171.869 136.036 171.997 135.159Z" fill="#E6E6E6"/>
<path d="M186.988 133.693C187.116 132.816 186.198 131.955 184.939 131.772C183.68 131.588 182.556 132.151 182.428 133.028C182.301 133.906 183.218 134.766 184.478 134.95C185.737 135.133 186.861 134.571 186.988 133.693Z" fill="#3F3D56"/>
<path d="M167.891 122.999C168.019 122.121 167.101 121.261 165.842 121.077C164.583 120.894 163.459 121.456 163.332 122.334C163.204 123.212 164.122 124.072 165.381 124.255C166.64 124.439 167.764 123.876 167.891 122.999Z" fill="#FF6584"/>
<path d="M161.377 118.018C161.383 117.212 160.935 116.555 160.376 116.551C159.816 116.547 159.358 117.197 159.352 118.002C159.346 118.808 159.794 119.465 160.354 119.469C160.913 119.473 161.371 118.823 161.377 118.018Z" fill="#E6E6E6"/>
<path d="M159.168 108.74C159.174 107.934 158.726 107.278 158.166 107.274C157.607 107.269 157.149 107.919 157.143 108.725C157.136 109.53 157.585 110.187 158.144 110.191C158.704 110.195 159.162 109.546 159.168 108.74Z" fill="#3F3D56"/>
<path d="M176.347 125.068C176.353 124.262 175.904 123.606 175.345 123.602C174.786 123.597 174.327 124.247 174.321 125.053C174.315 125.858 174.764 126.515 175.323 126.519C175.882 126.523 176.341 125.874 176.347 125.068Z" fill="#E6E6E6"/>
<path d="M169.102 128.692C169.108 127.886 168.66 127.23 168.101 127.226C167.541 127.221 167.083 127.871 167.077 128.677C167.071 129.482 167.519 130.139 168.078 130.143C168.638 130.147 169.096 129.498 169.102 128.692Z" fill="#FF6584"/>
<path d="M179.187 135.39C179.193 134.585 178.745 133.928 178.185 133.924C177.626 133.92 177.167 134.569 177.161 135.375C177.155 136.181 177.604 136.837 178.163 136.841C178.723 136.846 179.181 136.196 179.187 135.39Z" fill="#3F3D56"/>
<path d="M116.203 48.1001C116.331 47.2224 115.413 46.3622 114.154 46.1787C112.895 45.9951 111.771 46.5577 111.644 47.4353C111.516 48.313 112.434 49.1732 113.693 49.3568C114.952 49.5403 116.076 48.9777 116.203 48.1001Z" fill="white"/>
<path d="M131.195 46.6344C131.322 45.7568 130.405 44.8966 129.146 44.713C127.887 44.5294 126.763 45.0921 126.635 45.9697C126.508 46.8473 127.425 47.7075 128.684 47.8911C129.943 48.0747 131.067 47.512 131.195 46.6344Z" fill="#3F3D56"/>
<path d="M112.098 35.9399C112.226 35.0623 111.308 34.202 110.049 34.0185C108.79 33.8349 107.666 34.3976 107.538 35.2752C107.411 36.1528 108.328 37.013 109.588 37.1966C110.847 37.3802 111.971 36.8175 112.098 35.9399Z" fill="#FF6584"/>
<path d="M105.584 30.9589C105.59 30.1532 105.142 29.4967 104.582 29.4924C104.023 29.4882 103.564 30.1379 103.558 30.9436C103.552 31.7493 104.001 32.4058 104.56 32.4101C105.12 32.4143 105.578 31.7646 105.584 30.9589Z" fill="#E6E6E6"/>
<path d="M103.375 21.6813C103.381 20.8756 102.932 20.219 102.373 20.2148C101.814 20.2106 101.355 20.8603 101.349 21.666C101.343 22.4716 101.792 23.1282 102.351 23.1325C102.91 23.1367 103.369 22.487 103.375 21.6813Z" fill="#3F3D56"/>
<path d="M120.554 38.0093C120.56 37.2036 120.111 36.547 119.552 36.5428C118.992 36.5385 118.534 37.1882 118.528 37.9939C118.522 38.7996 118.97 39.4562 119.53 39.4604C120.089 39.4646 120.547 38.8149 120.554 38.0093Z" fill="#E6E6E6"/>
<path d="M113.309 41.6333C113.315 40.8276 112.867 40.1711 112.307 40.1668C111.748 40.1626 111.289 40.8123 111.283 41.618C111.277 42.4237 111.726 43.0802 112.285 43.0845C112.845 43.0887 113.303 42.439 113.309 41.6333Z" fill="#FF6584"/>
<path d="M123.394 48.3316C123.4 47.5259 122.951 46.8693 122.392 46.8651C121.832 46.8609 121.374 47.5105 121.368 48.3162C121.362 49.1219 121.81 49.7785 122.37 49.7827C122.929 49.787 123.388 49.1373 123.394 48.3316Z" fill="#3F3D56"/>
</g>
<defs>
<clipPath id="clip0_33_128">
<rect width="187" height="214" fill="white"/>
</clipPath>
</defs>
</svg>
