<svg width="818" height="520" viewBox="0 0 818 520" fill="none" xmlns="http://www.w3.org/2000/svg">
<path d="M0 0H818V520H0V0Z" fill="#FAFAFA"/>
<g clip-path="url(#clip0_29_120)">
<path d="M500.211 177.589V179.292C486.534 181.195 473.591 185.546 461.783 191.91C423.097 212.761 396.606 255.245 396.606 304.259H396.023V177.589H500.211Z" fill="#F2F2F2"/>
<path d="M586.209 281.018L600.459 279.308L602.52 287.769L587.392 289.011C587.07 289.362 586.694 289.671 586.268 289.92C583.948 291.276 581.027 290.389 579.743 287.939C578.459 285.489 579.299 282.404 581.619 281.048C583.098 280.183 584.821 280.234 586.209 281.018V281.018Z" fill="#FFB6B6"/>
<path d="M593.502 290.162C593.129 290.162 592.898 290.138 592.829 290.087C591.845 289.357 591.895 281.084 591.915 279.433L591.917 279.265L627.31 272.764L653.928 225.158L653.943 225.142C657.401 221.256 662.268 219.308 667.295 219.798C672.323 220.287 676.771 223.141 679.499 227.628C684.16 235.297 682.337 245.491 675.349 250.836L632.497 285.306L632.447 285.314C626.465 286.17 598.301 290.162 593.502 290.162V290.162Z" fill="#4ACFAB"/>
<path d="M633.569 416.704L627.492 418.058L619.544 393.399L628.512 391.4L633.569 416.704Z" fill="#FFB6B6"/>
<path d="M616.262 431.401C616.58 432.985 618.052 433.998 619.552 433.665L631.633 430.971L632.803 425.962L634.524 430.324L639.083 429.311L634.561 413.377L632.955 413.634L626.4 414.663L624.286 415L625.204 419.592L616.962 428.78C616.335 429.479 616.074 430.459 616.262 431.401V431.401Z" fill="#2F2E41"/>
<path d="M751.51 415.213L752.537 421.682L728.876 429.037L727.36 419.491L751.51 415.213Z" fill="#FFB6B6"/>
<path d="M764.69 434.09C766.201 433.821 767.221 432.311 766.97 430.714L764.926 417.853L760.236 416.409L764.435 414.775L763.667 409.922L748.404 414.027L748.58 415.733L749.279 422.692L749.509 424.937L753.892 424.16L762.24 433.242C762.875 433.932 763.791 434.25 764.69 434.09V434.09Z" fill="#2F2E41"/>
<path d="M661.938 302.306L660.619 316.863C660.619 316.863 619.259 307.158 599.796 313.05L596.074 314.458C592.99 315.624 590.574 318.254 589.707 321.574L589.69 321.641V321.641C588.767 325.24 589.237 329.076 590.998 332.312L596.906 344.315L617.681 402.3H634.084C634.084 402.3 628.774 361.345 623.103 340.776L671.505 356.372C671.505 356.372 696.576 355.679 691.958 329.339C687.339 303 687.999 298.494 687.999 298.494L661.938 302.306V302.306Z" fill="#2F2E41"/>
<path d="M654.851 341.93L668.626 344.019C668.626 344.019 658.436 394.139 663.096 414.848L662.919 418.331C663.879 421.623 663.575 428.746 666.689 429.817L666.752 429.838V429.838C670.129 430.98 676.486 433.105 679.648 431.415L689.053 433.928L741.108 432.573L737.268 417.164C737.268 417.164 712.919 414.641 685.598 409.193L704.83 340C706.875 334.04 706.601 327.408 703.834 321.782C700.814 315.643 694.637 309.951 682.004 311.737C656.739 315.309 652.487 314.398 652.487 314.398L654.851 341.93V341.93Z" fill="#2F2E41"/>
<path d="M702.491 318.769C684.744 343.807 674.34 334.172 652.579 315.525C652.579 315.525 653.118 322.53 651.427 309.442C650.852 304.995 646.143 295.012 646.435 290.384C647.587 272.137 638.373 268.082 638.373 268.082C638.373 268.082 630.31 246.591 642.98 238.076L652.195 221.856L649.699 213.069L669.472 206.042L675.182 214.2C684.244 227.148 689.644 242.544 690.756 258.602V258.602C691.156 264.366 690.998 270.159 690.287 275.89L688.285 292.006C697.599 300.532 702.276 309.458 702.491 318.769V318.769Z" fill="#4ACFAB"/>
<path d="M466.302 237.832L438.126 250.777C436.377 251.58 434.334 250.731 433.574 248.883C425.112 239.095 420.544 227.793 419.645 215.065C418.884 213.218 419.688 211.061 421.437 210.257L449.614 197.313C451.363 196.509 453.405 197.358 454.166 199.206L468.095 233.024C468.856 234.872 468.052 237.029 466.302 237.832V237.832Z" fill="#E6E6E6"/>
<path d="M427.885 208.482C423.321 210.579 421.231 216.186 423.216 221.007L434.223 247.732C434.922 249.427 436.789 250.204 438.394 249.466L453.976 242.308C461.787 238.72 465.364 229.124 461.967 220.874L453.516 200.358C452.818 198.662 450.951 197.886 449.345 198.623L427.885 208.482V208.482Z" fill="white"/>
<path d="M446.546 211.596L433.354 217.657C433.022 217.81 432.634 217.648 432.489 217.297C432.344 216.946 432.497 216.536 432.83 216.383L446.022 210.322C446.354 210.17 446.742 210.331 446.887 210.682C447.032 211.034 446.879 211.444 446.546 211.596H446.546Z" fill="#E6E6E6"/>
<path d="M452.141 225.18L438.949 231.24C438.616 231.393 438.228 231.231 438.083 230.88C437.939 230.529 438.092 230.119 438.424 229.966L451.616 223.906C451.949 223.753 452.337 223.914 452.481 224.266C452.626 224.617 452.473 225.027 452.141 225.18H452.141Z" fill="#E6E6E6"/>
<path d="M456.424 215.14L429.075 227.705C428.742 227.858 428.354 227.696 428.209 227.345C428.065 226.994 428.217 226.584 428.55 226.431L455.899 213.867C456.232 213.714 456.62 213.875 456.765 214.226C456.91 214.578 456.757 214.988 456.424 215.14H456.424Z" fill="#E6E6E6"/>
<path d="M461.817 227.302L450.405 232.545C450.072 232.698 449.684 232.536 449.539 232.185C449.395 231.834 449.548 231.424 449.88 231.271L461.292 226.028C461.625 225.876 462.013 226.037 462.158 226.388C462.302 226.739 462.15 227.15 461.817 227.302H461.817Z" fill="#E6E6E6"/>
<path d="M440.021 332.905H409.294C407.386 332.905 405.834 331.266 405.834 329.251C401.772 316.71 401.852 304.422 405.834 292.372C405.834 290.357 407.386 288.718 409.294 288.718H440.021C441.928 288.718 443.48 290.357 443.48 292.372V329.251C443.48 331.266 441.928 332.905 440.021 332.905V332.905Z" fill="#E6E6E6"/>
<path d="M415.878 289.806C410.9 289.806 406.865 294.068 406.865 299.325V328.469C406.865 330.317 408.284 331.816 410.035 331.816H427.027C435.545 331.816 442.45 324.524 442.45 315.528V293.154C442.45 291.305 441.03 289.806 439.28 289.806H415.878V289.806Z" fill="white"/>
<path d="M431.813 300.524H417.427C417.065 300.524 416.77 300.212 416.77 299.829C416.77 299.446 417.065 299.135 417.427 299.135H431.813C432.176 299.135 432.471 299.446 432.471 299.829C432.471 300.212 432.176 300.524 431.813 300.524Z" fill="#E6E6E6"/>
<path d="M431.813 315.336H417.427C417.065 315.336 416.77 315.025 416.77 314.642C416.77 314.259 417.065 313.947 417.427 313.947H431.813C432.176 313.947 432.471 314.259 432.471 314.642C432.471 315.025 432.176 315.336 431.813 315.336Z" fill="#E6E6E6"/>
<path d="M439.533 307.935H409.708C409.345 307.935 409.05 307.623 409.05 307.24C409.05 306.857 409.345 306.546 409.708 306.546H439.533C439.895 306.546 440.19 306.857 440.19 307.24C440.19 307.623 439.895 307.935 439.533 307.935Z" fill="#E6E6E6"/>
<path d="M439.885 321.359H427.44C427.077 321.359 426.782 321.048 426.782 320.665C426.782 320.281 427.077 319.97 427.44 319.97H439.885C440.247 319.97 440.542 320.282 440.542 320.665C440.542 321.048 440.247 321.359 439.885 321.359Z" fill="#E6E6E6"/>
<path d="M643.827 392.849L618.154 380.879C616.56 380.136 615.836 378.162 616.54 376.478C617.525 364.418 621.884 354.182 629.42 345.665C630.124 343.981 631.993 343.217 633.587 343.96L659.26 355.93C660.854 356.673 661.578 358.647 660.874 360.33L647.994 391.144C647.29 392.827 645.421 393.592 643.827 392.849V392.849Z" fill="#E6E6E6"/>
<path d="M638.708 347.434C634.549 345.495 629.689 347.484 627.853 351.876L617.674 376.226C617.029 377.771 617.691 379.576 619.154 380.258L633.351 386.877C640.468 390.196 648.784 386.792 651.926 379.276L659.74 360.582C660.386 359.038 659.723 357.233 658.261 356.551L638.708 347.434H638.708Z" fill="white"/>
<path d="M648.279 362.596L636.259 356.992C635.956 356.851 635.819 356.476 635.952 356.156C636.086 355.836 636.442 355.69 636.745 355.832L648.764 361.436C649.067 361.577 649.205 361.952 649.071 362.272C648.937 362.592 648.582 362.738 648.279 362.596V362.596Z" fill="#E6E6E6"/>
<path d="M643.106 374.973L631.086 369.369C630.783 369.227 630.645 368.852 630.779 368.532C630.913 368.212 631.268 368.067 631.571 368.208L643.591 373.812C643.894 373.953 644.031 374.328 643.898 374.648C643.764 374.969 643.409 375.114 643.106 374.973V374.973Z" fill="#E6E6E6"/>
<path d="M652.14 371.796L627.221 360.177C626.918 360.036 626.78 359.661 626.914 359.341C627.048 359.021 627.403 358.875 627.706 359.017L652.626 370.635C652.929 370.776 653.066 371.152 652.933 371.472C652.799 371.792 652.443 371.937 652.14 371.796V371.796Z" fill="#E6E6E6"/>
<path d="M647.746 383.149L637.348 378.301C637.045 378.16 636.907 377.785 637.041 377.464C637.175 377.144 637.53 376.999 637.833 377.14L648.231 381.988C648.534 382.13 648.672 382.505 648.538 382.825C648.404 383.145 648.049 383.29 647.746 383.149V383.149Z" fill="#E6E6E6"/>
<path d="M442.543 239.226H411.816C409.909 239.226 408.357 237.587 408.357 235.572C404.294 223.031 404.374 210.743 408.357 198.693C408.357 196.678 409.909 195.039 411.816 195.039H442.543C444.451 195.039 446.003 196.678 446.003 198.693V235.572C446.003 237.587 444.451 239.226 442.543 239.226V239.226Z" fill="#3F3D56"/>
<path d="M418.4 196.128C413.422 196.128 409.387 200.389 409.387 205.646V234.79C409.387 236.639 410.807 238.137 412.557 238.137H429.549C438.067 238.137 444.972 230.845 444.972 221.849V199.475C444.972 197.626 443.553 196.128 441.802 196.128H418.4Z" fill="#4ACFAB"/>
<path d="M434.335 206.845H419.95C419.587 206.845 419.292 206.533 419.292 206.15C419.292 205.767 419.587 205.456 419.95 205.456H434.335C434.698 205.456 434.993 205.767 434.993 206.15C434.993 206.533 434.698 206.845 434.335 206.845Z" fill="#3F3D56"/>
<path d="M434.335 221.658H419.95C419.587 221.658 419.292 221.346 419.292 220.963C419.292 220.58 419.587 220.268 419.95 220.268H434.335C434.698 220.268 434.993 220.58 434.993 220.963C434.993 221.346 434.698 221.658 434.335 221.658Z" fill="#3F3D56"/>
<path d="M442.055 214.256H412.23C411.867 214.256 411.572 213.944 411.572 213.561C411.572 213.178 411.867 212.867 412.23 212.867H442.055C442.418 212.867 442.713 213.178 442.713 213.561C442.713 213.944 442.418 214.256 442.055 214.256Z" fill="#3F3D56"/>
<path d="M442.407 227.68H429.962C429.599 227.68 429.304 227.369 429.304 226.986C429.304 226.603 429.599 226.291 429.962 226.291H442.407C442.769 226.291 443.064 226.603 443.064 226.986C443.064 227.369 442.769 227.68 442.407 227.68Z" fill="#3F3D56"/>
<path d="M621.991 281.742L599.218 299.061C597.804 300.137 595.825 299.797 594.807 298.303C585.459 291.298 579.309 282.146 576.171 270.97C575.153 269.476 575.475 267.387 576.889 266.311L599.662 248.993C601.076 247.917 603.055 248.257 604.073 249.751L622.709 277.084C623.727 278.578 623.405 280.667 621.991 281.742V281.742Z" fill="#3F3D56"/>
<path d="M582.318 263.408C578.629 266.213 577.792 271.646 580.449 275.542L595.176 297.142C596.11 298.513 597.919 298.824 599.217 297.837L611.811 288.26C618.124 283.459 619.556 274.162 615.01 267.494L603.704 250.912C602.77 249.541 600.961 249.23 599.663 250.217L582.318 263.408H582.318Z" fill="#4ACFAB"/>
<path d="M599.545 262.369L588.883 270.477C588.614 270.682 588.238 270.617 588.044 270.333C587.851 270.049 587.912 269.652 588.181 269.448L598.843 261.339C599.112 261.135 599.488 261.199 599.682 261.483C599.875 261.767 599.814 262.164 599.545 262.369V262.369Z" fill="#3F3D56"/>
<path d="M607.03 273.347L596.368 281.456C596.099 281.66 595.723 281.596 595.53 281.312C595.336 281.028 595.397 280.631 595.666 280.426L606.328 272.318C606.597 272.113 606.973 272.178 607.167 272.462C607.36 272.746 607.299 273.143 607.03 273.347V273.347Z" fill="#3F3D56"/>
<path d="M609.012 263.511L586.907 280.321C586.638 280.526 586.262 280.461 586.068 280.177C585.874 279.893 585.936 279.496 586.204 279.292L608.31 262.481C608.578 262.277 608.955 262.341 609.148 262.625C609.342 262.909 609.281 263.306 609.012 263.511V263.511Z" fill="#3F3D56"/>
<path d="M616.056 273.262L606.832 280.276C606.564 280.481 606.187 280.416 605.994 280.132C605.8 279.848 605.862 279.451 606.13 279.247L615.354 272.232C615.623 272.028 615.999 272.093 616.192 272.376C616.386 272.66 616.325 273.058 616.056 273.262V273.262Z" fill="#3F3D56"/>
<path d="M478.63 424.159V433.113C478.63 433.669 476.757 434.121 474.456 434.121C460.13 435.305 446.092 435.281 432.326 434.121C430.024 434.121 428.152 433.669 428.152 433.113V424.159C428.152 423.603 430.024 423.151 432.326 423.151H474.456C476.757 423.151 478.63 423.603 478.63 424.159Z" fill="#E6E6E6"/>
<path d="M429.395 431.194C429.395 432.645 434.264 433.82 440.269 433.82H473.562C475.674 433.82 477.386 433.407 477.386 432.897V427.945C477.386 425.463 469.055 423.451 458.779 423.451H433.22C431.108 423.451 429.395 423.864 429.395 424.375V431.194H429.395Z" fill="white"/>
<path d="M441.639 426.55V430.743C441.639 430.848 441.283 430.934 440.845 430.934C440.407 430.934 440.052 430.848 440.052 430.743V426.55C440.052 426.445 440.407 426.359 440.845 426.359C441.283 426.359 441.639 426.445 441.639 426.55V426.55Z" fill="#E6E6E6"/>
<path d="M458.56 426.55V430.743C458.56 430.848 458.204 430.934 457.767 430.934C457.329 430.934 456.973 430.848 456.973 430.743V426.55C456.973 426.445 457.329 426.359 457.767 426.359C458.204 426.359 458.56 426.445 458.56 426.55V426.55Z" fill="#E6E6E6"/>
<path d="M450.105 424.301V432.992C450.105 433.098 449.749 433.184 449.311 433.184C448.874 433.184 448.518 433.098 448.518 432.992V424.301C448.518 424.195 448.874 424.109 449.311 424.109C449.749 424.109 450.105 424.195 450.105 424.301H450.105Z" fill="#E6E6E6"/>
<path d="M465.44 424.198V427.825C465.44 427.931 465.084 428.017 464.647 428.017C464.209 428.017 463.853 427.931 463.853 427.825V424.198C463.853 424.093 464.209 424.007 464.647 424.007C465.084 424.007 465.44 424.093 465.44 424.198V424.198Z" fill="#E6E6E6"/>
<path d="M541.014 424.159V433.113C541.014 433.669 539.141 434.121 536.839 434.121C522.513 435.305 508.476 435.281 494.71 434.121C492.408 434.121 490.536 433.669 490.536 433.113V424.159C490.536 423.603 492.408 423.151 494.71 423.151H536.839C539.141 423.151 541.014 423.603 541.014 424.159V424.159Z" fill="#E6E6E6"/>
<path d="M491.779 431.194C491.779 432.645 496.647 433.82 502.652 433.82H535.946C538.058 433.82 539.77 433.407 539.77 432.897V427.945C539.77 425.463 531.439 423.451 521.163 423.451H495.603C493.491 423.451 491.779 423.864 491.779 424.375V431.194H491.779Z" fill="#F2F2F2"/>
<path d="M504.022 426.55V430.743C504.022 430.848 503.666 430.934 503.229 430.934C502.791 430.934 502.435 430.848 502.435 430.743V426.55C502.435 426.445 502.791 426.359 503.229 426.359C503.666 426.359 504.022 426.445 504.022 426.55V426.55Z" fill="#E6E6E6"/>
<path d="M520.944 426.55V430.743C520.944 430.848 520.588 430.934 520.15 430.934C519.713 430.934 519.357 430.848 519.357 430.743V426.55C519.357 426.445 519.713 426.359 520.15 426.359C520.588 426.359 520.944 426.445 520.944 426.55V426.55Z" fill="#E6E6E6"/>
<path d="M512.489 424.301V432.992C512.489 433.098 512.133 433.184 511.695 433.184C511.257 433.184 510.902 433.098 510.902 432.992V424.301C510.902 424.195 511.257 424.109 511.695 424.109C512.133 424.109 512.489 424.195 512.489 424.301V424.301Z" fill="#E6E6E6"/>
<path d="M527.824 424.198V427.825C527.824 427.931 527.468 428.017 527.03 428.017C526.593 428.017 526.237 427.931 526.237 427.825V424.198C526.237 424.093 526.593 424.007 527.03 424.007C527.468 424.007 527.824 424.093 527.824 424.198V424.198Z" fill="#E6E6E6"/>
<path d="M642.385 307.773V314.551C642.385 314.972 640.967 315.314 639.225 315.314C628.38 316.21 617.753 316.193 607.332 315.314C605.59 315.314 604.172 314.972 604.172 314.551V307.773C604.172 307.352 605.59 307.009 607.332 307.009H639.225C640.967 307.009 642.385 307.352 642.385 307.773V307.773Z" fill="#E6E6E6"/>
<path d="M605.114 313.099C605.114 314.197 608.799 315.087 613.345 315.087H638.548C640.147 315.087 641.443 314.774 641.443 314.387V310.639C641.443 308.76 635.137 307.237 627.357 307.237H608.009C606.41 307.237 605.114 307.55 605.114 307.936V313.099V313.099Z" fill="#F2F2F2"/>
<path d="M614.382 309.583V312.757C614.382 312.837 614.112 312.902 613.781 312.902C613.45 312.902 613.18 312.837 613.18 312.757V309.583C613.18 309.503 613.45 309.438 613.781 309.438C614.112 309.438 614.382 309.503 614.382 309.583Z" fill="#E6E6E6"/>
<path d="M627.192 309.583V312.757C627.192 312.837 626.922 312.902 626.591 312.902C626.26 312.902 625.99 312.837 625.99 312.757V309.583C625.99 309.503 626.26 309.438 626.591 309.438C626.922 309.438 627.192 309.503 627.192 309.583Z" fill="#E6E6E6"/>
<path d="M620.791 307.88V314.46C620.791 314.54 620.521 314.605 620.19 314.605C619.859 314.605 619.59 314.54 619.59 314.46V307.88C619.59 307.8 619.859 307.735 620.19 307.735C620.521 307.735 620.791 307.8 620.791 307.88Z" fill="#E6E6E6"/>
<path d="M632.4 307.803V310.548C632.4 310.628 632.131 310.693 631.799 310.693C631.468 310.693 631.199 310.628 631.199 310.548V307.803C631.199 307.723 631.468 307.658 631.799 307.658C632.131 307.658 632.4 307.723 632.4 307.803Z" fill="#E6E6E6"/>
<path d="M631.501 338.748L641.885 328.299L648.364 333.731L637.014 344.365C636.958 344.851 636.835 345.337 636.637 345.807C635.563 348.367 632.727 349.523 630.303 348.388C627.879 347.253 626.785 344.258 627.86 341.698C628.545 340.066 629.947 339.008 631.501 338.748V338.748Z" fill="#FFB6B6"/>
<path d="M642.543 341.388C642.246 341.626 642.048 341.754 641.963 341.757C640.762 341.802 636.073 335.175 635.145 333.846L635.051 333.711L659.551 305.963L653.56 251.04L653.562 251.017C654.098 245.715 656.865 241.059 661.152 238.244C665.44 235.428 670.618 234.868 675.357 236.706C683.457 239.848 687.831 249.137 685.315 257.854L670.855 312.655L670.819 312.693C666.54 317.189 646.369 338.328 642.543 341.388V341.388Z" fill="#4ACFAB"/>
<path d="M803 433.328H374V434.399H803V433.328Z" fill="#CCCCCC"/>
<path d="M428.325 199.037C430.879 199.037 432.949 196.851 432.949 194.153C432.949 191.456 430.879 189.27 428.325 189.27C425.771 189.27 423.701 191.456 423.701 194.153C423.701 196.851 425.771 199.037 428.325 199.037Z" fill="#3F3D56"/>
<path d="M424.962 293.604C427.516 293.604 429.586 291.417 429.586 288.72C429.586 286.023 427.516 283.836 424.962 283.836C422.408 283.836 420.338 286.023 420.338 288.72C420.338 291.417 422.408 293.604 424.962 293.604Z" fill="#F2F2F2"/>
<path d="M513.905 223.889C516.986 223.889 519.484 221.251 519.484 217.997C519.484 214.743 516.986 212.105 513.905 212.105C510.823 212.105 508.326 214.743 508.326 217.997C508.326 221.251 510.823 223.889 513.905 223.889Z" fill="#F2F2F2"/>
<path d="M575.39 248.024C574.936 242.534 572.777 237.289 569.323 233.162C565.958 229.141 561.359 226.383 556.399 225.26C553.631 224.632 550.762 224.51 547.959 224.932C547.287 225.034 547.305 226.159 547.984 226.057C552.756 225.338 557.688 226.216 561.976 228.543C566.371 230.929 569.889 234.809 572.062 239.487C573.304 242.162 574.08 245.082 574.325 248.051C574.385 248.769 575.45 248.747 575.39 248.024H575.39Z" fill="#E6E6E6"/>
<path d="M549.139 220.418L540.942 224.689C540.644 224.845 540.595 225.358 540.848 225.579L548.608 232.354C549.134 232.812 549.873 232.002 549.343 231.54L541.583 224.765L541.49 225.654L549.687 221.383C550.302 221.062 549.75 220.1 549.139 220.418V220.418Z" fill="#E6E6E6"/>
<path d="M459.319 300.075C464.107 297.883 468.135 294.061 470.749 289.295C473.296 284.652 474.319 279.171 473.759 273.847C473.446 270.874 472.649 267.962 471.382 265.287C471.079 264.646 470.074 265.02 470.38 265.668C472.536 270.221 473.307 275.441 472.573 280.473C471.821 285.631 469.449 290.383 465.935 294.04C463.925 296.131 461.547 297.832 458.958 299.017C458.332 299.304 458.689 300.364 459.319 300.075H459.319Z" fill="#E6E6E6"/>
<path d="M475.811 265.042L469.381 258.18C469.147 257.931 468.671 258.044 468.552 258.368L464.922 268.286C464.676 268.957 465.638 269.441 465.886 268.765L469.516 258.847L468.687 259.034L475.117 265.895C475.6 266.411 476.29 265.553 475.811 265.042V265.042Z" fill="#E6E6E6"/>
<path d="M638.076 196.207C638.157 194.594 637.343 204.53 638.741 204.367C645.107 203.617 654.471 205.468 659.188 206.247C659.377 206.176 659.567 206.105 659.749 206.03C660.201 205.864 660.636 205.677 661.063 205.479C670.686 201.033 671.012 183.777 670.98 183.628C670.821 182.894 664.779 163.147 662.088 163.485C661.39 163.572 660.689 163.698 659.985 163.868L653.467 165.446C652.015 165.471 650.595 165.589 649.24 165.811L649.229 165.813C635.878 167.934 627.366 178.885 630.564 188.929C630.572 188.939 630.586 188.948 630.595 188.959C630.971 189.332 631.307 189.69 631.612 190.037C631.905 190.362 632.16 190.677 632.388 190.979C634.154 193.314 631.797 197.361 633.969 197.484C636.858 197.648 631.078 226.722 643.597 224.379C633.381 220.64 637.853 200.656 638.076 196.207V196.207Z" fill="#2F2E41"/>
<path d="M649.684 209.605C658.427 209.605 665.515 202.119 665.515 192.885C665.515 183.651 658.427 176.165 649.684 176.165C640.94 176.165 633.852 183.651 633.852 192.885C633.852 202.119 640.94 209.605 649.684 209.605Z" fill="#FFB6B6"/>
<path d="M675.231 186.984C675.166 188.541 670.637 202.392 664.481 202.392C663.329 202.392 661.793 196.31 660.641 190.633C660.544 190.153 662.415 226.673 661.966 226.84C662.177 221.451 655.289 203.56 655.577 199.919C656.606 186.85 652.885 188.277 646.788 185.848L646.789 185.938C645.445 184.591 644.531 182.771 644.251 180.836C643.913 182.726 643.921 184.672 644.255 186.55C643.149 189.145 641.083 190.414 638.307 190.706C637.912 189.141 637.117 187.466 636.388 187.138C636.53 188.322 636.533 189.567 636.311 190.759C635.132 190.71 633.969 193.764 632.613 193.472C632.318 193.415 632.679 198.625 632.379 198.552C632.095 198.483 631.815 198.415 631.523 198.333C631.462 198.045 629.588 197.413 629.542 197.121C628.156 188.743 628.037 174.028 635.938 171.766C636.146 171.701 636.357 171.644 636.568 171.595L648.432 168.586C648.294 167.938 648.367 167.289 648.62 166.725C648.762 166.385 648.973 166.076 649.231 165.821C649.234 165.817 649.234 165.813 649.238 165.809C649.591 165.46 650.029 165.201 650.532 165.079C650.613 165.059 650.701 165.042 650.786 165.026C652.041 164.848 653.289 164.755 654.529 164.73C655.136 164.718 655.742 164.726 656.345 164.751C656.395 164.751 656.437 164.751 656.483 164.755C658.468 164.844 660.419 165.12 662.315 165.582C665.606 166.725 668.528 168.846 670.708 171.676C672.39 173.854 673.63 176.449 674.26 179.36C674.525 182.953 675.485 180.865 675.231 186.984V186.984Z" fill="#2F2E41"/>
<path d="M676.029 174.523C675.612 173.809 675.012 173.09 674.312 172.491C674.553 172.364 674.786 172.225 675.004 172.065C676.939 170.64 677.491 167.522 674 165.846C672.386 165.071 671.373 163.001 669.871 161.58C669.871 161.58 665.018 157.221 665.154 157.549C663.796 156.183 663.388 154.491 662.349 153C662.032 154.801 662.439 157.148 663.32 158.82C662.459 158.769 661.444 158.542 660.974 158.191C657.342 155.477 654.657 156.17 651.459 159.101C649.372 161.012 648.105 162.821 648.924 165.267C649.374 166.612 650.299 167.509 651.781 168.094C653.351 168.714 656.464 169.659 658.105 169.128L667.392 173.018C668.112 173.187 668.963 173.308 669.854 173.341C671.485 173.849 673.291 175.015 674.369 176.18C675.706 177.625 676.029 179.361 677.011 180.923C677.454 178.946 677.04 176.25 676.029 174.523V174.523Z" fill="#2F2E41"/>
</g>
<path d="M37.9164 167.065H48.8001V169.2H40.0515V173.47H47.519V175.605H40.0515V179.865H48.8001V182H37.9164V167.065ZM60.5795 172.96V182H58.5277V172.96H53.8305V182H51.7892V170.908H53.8305V172.866C53.8444 172.595 53.9069 172.342 54.018 172.106C54.1291 171.863 54.2749 171.654 54.4554 171.481C54.6429 171.3 54.8582 171.161 55.1012 171.064C55.3442 170.96 55.6046 170.908 55.8823 170.908H58.5277C58.7985 170.908 59.0554 170.96 59.2984 171.064C59.5415 171.161 59.7567 171.3 59.9442 171.481C60.1316 171.654 60.2809 171.863 60.392 172.106C60.5101 172.342 60.5725 172.595 60.5795 172.866C60.5934 172.595 60.6524 172.342 60.7565 172.106C60.8676 171.863 61.0135 171.654 61.194 171.481C61.3815 171.3 61.5967 171.161 61.8397 171.064C62.0827 170.96 62.3431 170.908 62.6208 170.908H65.2663C65.5509 170.908 65.8183 170.964 66.0682 171.075C66.3182 171.179 66.5334 171.325 66.714 171.512C66.9014 171.693 67.0472 171.908 67.1514 172.158C67.2625 172.408 67.318 172.675 67.318 172.96V182H65.2663V172.96H60.5795ZM70.7446 177.157C70.7446 176.872 70.7966 176.608 70.9008 176.365C71.0119 176.116 71.1577 175.897 71.3382 175.709C71.5257 175.522 71.7444 175.376 71.9944 175.272C72.2443 175.161 72.5082 175.105 72.7859 175.105H78.0768V172.96H71.3799V170.908H78.0768C78.3614 170.908 78.6288 170.964 78.8787 171.075C79.1287 171.179 79.3439 171.325 79.5245 171.512C79.7119 171.693 79.8577 171.908 79.9619 172.158C80.073 172.408 80.1285 172.675 80.1285 172.96V182H78.0768V180.125C78.0559 180.382 77.9865 180.625 77.8685 180.854C77.7504 181.083 77.5977 181.285 77.4102 181.458C77.2297 181.625 77.0214 181.757 76.7853 181.854C76.5492 181.951 76.2993 182 76.0354 182H72.7859C72.5082 182 72.2443 181.948 71.9944 181.844C71.7444 181.733 71.5257 181.587 71.3382 181.406C71.1577 181.219 71.0119 181 70.9008 180.75C70.7966 180.5 70.7446 180.233 70.7446 179.948V177.157ZM72.7859 179.948H78.0768V177.157H72.7859V179.948ZM85.711 170.908V182H83.6592V170.908H85.711ZM83.5551 166.638H85.8151V168.773H83.5551V166.638ZM91.283 166.638V182H89.2417V166.638H91.283ZM94.6992 178.886H97.8133V182H94.6992V178.886ZM94.6992 170.908H97.8133V174.022H94.6992V170.908Z" fill="#181818"/>
<path d="M37.9164 250V235.065H46.0922C48.5085 235.065 49.7166 236.276 49.7166 238.7V240.824C49.7166 243.248 48.5085 244.459 46.0922 244.459H40.0515V250H37.9164ZM40.0515 242.324H45.9776C46.547 242.324 46.9566 242.199 47.2066 241.949C47.4565 241.699 47.5815 241.29 47.5815 240.72V238.804C47.5815 238.234 47.4565 237.825 47.2066 237.575C46.9566 237.325 46.547 237.2 45.9776 237.2H40.0515V242.324ZM52.4974 245.157C52.4974 244.872 52.5495 244.608 52.6536 244.365C52.7647 244.116 52.9106 243.897 53.0911 243.709C53.2785 243.522 53.4973 243.376 53.7472 243.272C53.9972 243.161 54.261 243.105 54.5388 243.105H59.8296V240.96H53.1327V238.908H59.8296C60.1143 238.908 60.3816 238.964 60.6316 239.075C60.8815 239.179 61.0968 239.325 61.2773 239.512C61.4648 239.693 61.6106 239.908 61.7147 240.158C61.8258 240.408 61.8814 240.675 61.8814 240.96V250H59.8296V248.125C59.8088 248.382 59.7393 248.625 59.6213 248.854C59.5033 249.083 59.3505 249.285 59.163 249.458C58.9825 249.625 58.7742 249.757 58.5381 249.854C58.3021 249.951 58.0521 250 57.7883 250H54.5388C54.261 250 53.9972 249.948 53.7472 249.844C53.4973 249.733 53.2785 249.587 53.0911 249.406C52.9106 249.219 52.7647 249 52.6536 248.75C52.5495 248.5 52.4974 248.233 52.4974 247.948V245.157ZM54.5388 247.948H59.8296V245.157H54.5388V247.948ZM72.0048 247.948V245.376H67.141C66.8563 245.376 66.589 245.324 66.339 245.219C66.089 245.108 65.8703 244.963 65.6829 244.782C65.5023 244.595 65.3565 244.376 65.2454 244.126C65.1413 243.876 65.0892 243.609 65.0892 243.324V240.96C65.0892 240.675 65.1413 240.408 65.2454 240.158C65.3565 239.908 65.5023 239.693 65.6829 239.512C65.8703 239.325 66.089 239.179 66.339 239.075C66.589 238.964 66.8563 238.908 67.141 238.908H73.6295V240.96H67.141V243.324H72.0048C72.2895 243.324 72.5533 243.38 72.7963 243.491C73.0463 243.595 73.265 243.741 73.4525 243.928C73.64 244.109 73.7858 244.324 73.8899 244.574C74.001 244.824 74.0566 245.091 74.0566 245.376V247.948C74.0566 248.233 74.001 248.5 73.8899 248.75C73.7858 249 73.64 249.219 73.4525 249.406C73.265 249.587 73.0463 249.733 72.7963 249.844C72.5533 249.948 72.2895 250 72.0048 250H65.0892V247.948H72.0048ZM83.9613 247.948V245.376H79.0974C78.8128 245.376 78.5454 245.324 78.2955 245.219C78.0455 245.108 77.8268 244.963 77.6393 244.782C77.4588 244.595 77.313 244.376 77.2019 244.126C77.0977 243.876 77.0457 243.609 77.0457 243.324V240.96C77.0457 240.675 77.0977 240.408 77.2019 240.158C77.313 239.908 77.4588 239.693 77.6393 239.512C77.8268 239.325 78.0455 239.179 78.2955 239.075C78.5454 238.964 78.8128 238.908 79.0974 238.908H85.586V240.96H79.0974V243.324H83.9613C84.2459 243.324 84.5098 243.38 84.7528 243.491C85.0028 243.595 85.2215 243.741 85.4089 243.928C85.5964 244.109 85.7422 244.324 85.8464 244.574C85.9575 244.824 86.013 245.091 86.013 245.376V247.948C86.013 248.233 85.9575 248.5 85.8464 248.75C85.7422 249 85.5964 249.219 85.4089 249.406C85.2215 249.587 85.0028 249.733 84.7528 249.844C84.5098 249.948 84.2459 250 83.9613 250H77.0457V247.948H83.9613ZM91.5226 250L87.9398 238.908H90.0124L92.637 247.271L95.0845 238.908H97.1779L99.6255 247.271L102.25 238.908H104.323L100.74 250H98.6048L96.126 241.855L93.6577 250H91.5226ZM116.06 247.948C116.06 248.233 116.005 248.5 115.894 248.75C115.79 249 115.644 249.219 115.456 249.406C115.276 249.587 115.061 249.733 114.811 249.844C114.568 249.948 114.304 250 114.019 250H108.51C108.232 250 107.968 249.948 107.718 249.844C107.468 249.733 107.249 249.587 107.062 249.406C106.881 249.219 106.735 249 106.624 248.75C106.52 248.5 106.468 248.233 106.468 247.948V240.96C106.468 240.675 106.52 240.408 106.624 240.158C106.735 239.908 106.881 239.693 107.062 239.512C107.249 239.325 107.468 239.179 107.718 239.075C107.968 238.964 108.232 238.908 108.51 238.908H114.019C114.304 238.908 114.568 238.964 114.811 239.075C115.061 239.179 115.276 239.325 115.456 239.512C115.644 239.693 115.79 239.908 115.894 240.158C116.005 240.408 116.06 240.675 116.06 240.96V247.948ZM108.51 240.96V247.948H114.019V240.96H108.51ZM121.528 240.96V250H119.487V238.908H121.528V240.866C121.542 240.595 121.605 240.342 121.716 240.106C121.827 239.863 121.973 239.654 122.153 239.481C122.341 239.3 122.556 239.161 122.799 239.064C123.042 238.96 123.302 238.908 123.58 238.908H125.757C126.041 238.908 126.305 238.964 126.548 239.075C126.798 239.179 127.017 239.325 127.204 239.512C127.392 239.693 127.538 239.908 127.642 240.158C127.753 240.408 127.809 240.675 127.809 240.96V242.834H125.757V240.96H121.528ZM130.36 240.96C130.36 240.675 130.412 240.408 130.516 240.158C130.628 239.908 130.773 239.693 130.954 239.512C131.141 239.325 131.36 239.179 131.61 239.075C131.86 238.964 132.124 238.908 132.402 238.908H138.119V234.638H140.171V250H138.119V248.125C138.099 248.382 138.029 248.625 137.911 248.854C137.793 249.083 137.64 249.285 137.453 249.458C137.272 249.625 137.064 249.757 136.828 249.854C136.592 249.951 136.342 250 136.078 250H132.402C132.124 250 131.86 249.948 131.61 249.844C131.36 249.733 131.141 249.587 130.954 249.406C130.773 249.219 130.628 249 130.516 248.75C130.412 248.5 130.36 248.233 130.36 247.948V240.96ZM132.402 247.948H138.119V240.96H132.402V247.948ZM143.587 246.886H146.701V250H143.587V246.886ZM143.587 238.908H146.701V242.022H143.587V238.908Z" fill="#181818"/>
<path d="M37.9164 305.2C37.9164 304.908 37.9719 304.634 38.083 304.377C38.1941 304.113 38.3469 303.888 38.5413 303.7C38.7357 303.506 38.9613 303.353 39.2182 303.242C39.4821 303.124 39.7598 303.065 40.0515 303.065H48.1544C48.446 303.065 48.7202 303.124 48.9771 303.242C49.241 303.353 49.4701 303.506 49.6645 303.7C49.8589 303.888 50.0117 304.113 50.1228 304.377C50.2339 304.634 50.2894 304.908 50.2894 305.2V307.127H48.1544V305.2H40.0515V315.865H48.1544V313.949H50.2894V315.865C50.2894 316.157 50.2339 316.434 50.1228 316.698C50.0117 316.955 49.8589 317.181 49.6645 317.375C49.4701 317.57 49.241 317.722 48.9771 317.833C48.7202 317.944 48.446 318 48.1544 318H40.0515C39.7598 318 39.4821 317.944 39.2182 317.833C38.9613 317.722 38.7357 317.57 38.5413 317.375C38.3469 317.181 38.1941 316.955 38.083 316.698C37.9719 316.434 37.9164 316.157 37.9164 315.865V305.2ZM63.0895 315.948C63.0895 316.233 63.034 316.5 62.9229 316.75C62.8187 317 62.6729 317.219 62.4854 317.406C62.3049 317.587 62.0897 317.733 61.8397 317.844C61.5967 317.948 61.3328 318 61.0482 318H55.5386C55.2609 318 54.997 317.948 54.7471 317.844C54.4971 317.733 54.2784 317.587 54.0909 317.406C53.9104 317.219 53.7646 317 53.6535 316.75C53.5493 316.5 53.4973 316.233 53.4973 315.948V308.96C53.4973 308.675 53.5493 308.408 53.6535 308.158C53.7646 307.908 53.9104 307.693 54.0909 307.512C54.2784 307.325 54.4971 307.179 54.7471 307.075C54.997 306.964 55.2609 306.908 55.5386 306.908H61.0482C61.3328 306.908 61.5967 306.964 61.8397 307.075C62.0897 307.179 62.3049 307.325 62.4854 307.512C62.6729 307.693 62.8187 307.908 62.9229 308.158C63.034 308.408 63.0895 308.675 63.0895 308.96V315.948ZM55.5386 308.96V315.948H61.0482V308.96H55.5386ZM76.327 318H74.2753V308.96H68.5574V318H66.5161V306.908H68.5574V308.866C68.5713 308.595 68.6338 308.342 68.7449 308.106C68.856 307.863 69.0018 307.654 69.1823 307.481C69.3698 307.3 69.585 307.161 69.828 307.064C70.0711 306.96 70.3314 306.908 70.6092 306.908H74.2753C74.5599 306.908 74.8273 306.964 75.0772 307.075C75.3272 307.179 75.5424 307.325 75.723 307.512C75.9104 307.693 76.0562 307.908 76.1604 308.158C76.2715 308.408 76.327 308.675 76.327 308.96V318ZM83.8571 304.69V306.908H87.5024V308.96H83.8571V318H81.8053V308.96H79.0974V306.908H81.8053V304.69C81.8053 304.405 81.8574 304.141 81.9616 303.898C82.0727 303.648 82.2219 303.429 82.4094 303.242C82.5969 303.054 82.8156 302.909 83.0656 302.804C83.3155 302.693 83.5794 302.638 83.8571 302.638H87.5024V304.69H83.8571ZM92.4391 306.908V318H90.3873V306.908H92.4391ZM90.2832 302.638H92.5432V304.773H90.2832V302.638ZM98.0111 308.96V318H95.9698V306.908H98.0111V308.866C98.025 308.595 98.0875 308.342 98.1986 308.106C98.3097 307.863 98.4555 307.654 98.636 307.481C98.8235 307.3 99.0388 307.161 99.2818 307.064C99.5248 306.96 99.7852 306.908 100.063 306.908H102.24C102.524 306.908 102.788 306.964 103.031 307.075C103.281 307.179 103.5 307.325 103.687 307.512C103.875 307.693 104.021 307.908 104.125 308.158C104.236 308.408 104.291 308.675 104.291 308.96V310.834H102.24V308.96H98.0111ZM115.633 308.96V318H113.582V308.96H108.884V318H106.843V306.908H108.884V308.866C108.898 308.595 108.961 308.342 109.072 308.106C109.183 307.863 109.329 307.654 109.509 307.481C109.697 307.3 109.912 307.161 110.155 307.064C110.398 306.96 110.658 306.908 110.936 306.908H113.582C113.852 306.908 114.109 306.96 114.352 307.064C114.595 307.161 114.811 307.3 114.998 307.481C115.186 307.654 115.335 307.863 115.446 308.106C115.564 308.342 115.626 308.595 115.633 308.866C115.647 308.595 115.706 308.342 115.81 308.106C115.922 307.863 116.067 307.654 116.248 307.481C116.435 307.3 116.651 307.161 116.894 307.064C117.137 306.96 117.397 306.908 117.675 306.908H120.32C120.605 306.908 120.872 306.964 121.122 307.075C121.372 307.179 121.587 307.325 121.768 307.512C121.955 307.693 122.101 307.908 122.205 308.158C122.316 308.408 122.372 308.675 122.372 308.96V318H120.32V308.96H115.633ZM132.402 318V303.065H140.577C142.994 303.065 144.202 304.276 144.202 306.7V308.824C144.202 311.248 142.994 312.459 140.577 312.459H134.537V318H132.402ZM134.537 310.324H140.463C141.032 310.324 141.442 310.199 141.692 309.949C141.942 309.699 142.067 309.29 142.067 308.72V306.804C142.067 306.234 141.942 305.825 141.692 305.575C141.442 305.325 141.032 305.2 140.463 305.2H134.537V310.324ZM146.983 313.157C146.983 312.872 147.035 312.608 147.139 312.365C147.25 312.116 147.396 311.897 147.576 311.709C147.764 311.522 147.982 311.376 148.232 311.272C148.482 311.161 148.746 311.105 149.024 311.105H154.315V308.96H147.618V306.908H154.315C154.6 306.908 154.867 306.964 155.117 307.075C155.367 307.179 155.582 307.325 155.763 307.512C155.95 307.693 156.096 307.908 156.2 308.158C156.311 308.408 156.367 308.675 156.367 308.96V318H154.315V316.125C154.294 316.382 154.225 316.625 154.107 316.854C153.989 317.083 153.836 317.285 153.648 317.458C153.468 317.625 153.259 317.757 153.023 317.854C152.787 317.951 152.537 318 152.273 318H149.024C148.746 318 148.482 317.948 148.232 317.844C147.982 317.733 147.764 317.587 147.576 317.406C147.396 317.219 147.25 317 147.139 316.75C147.035 316.5 146.983 316.233 146.983 315.948V313.157ZM149.024 315.948H154.315V313.157H149.024V315.948ZM166.49 315.948V313.376H161.626C161.342 313.376 161.074 313.324 160.824 313.219C160.574 313.108 160.356 312.963 160.168 312.782C159.988 312.595 159.842 312.376 159.731 312.126C159.627 311.876 159.574 311.609 159.574 311.324V308.96C159.574 308.675 159.627 308.408 159.731 308.158C159.842 307.908 159.988 307.693 160.168 307.512C160.356 307.325 160.574 307.179 160.824 307.075C161.074 306.964 161.342 306.908 161.626 306.908H168.115V308.96H161.626V311.324H166.49C166.775 311.324 167.039 311.38 167.282 311.491C167.532 311.595 167.75 311.741 167.938 311.928C168.125 312.109 168.271 312.324 168.375 312.574C168.486 312.824 168.542 313.091 168.542 313.376V315.948C168.542 316.233 168.486 316.5 168.375 316.75C168.271 317 168.125 317.219 167.938 317.406C167.75 317.587 167.532 317.733 167.282 317.844C167.039 317.948 166.775 318 166.49 318H159.574V315.948H166.49ZM178.446 315.948V313.376H173.583C173.298 313.376 173.031 313.324 172.781 313.219C172.531 313.108 172.312 312.963 172.125 312.782C171.944 312.595 171.798 312.376 171.687 312.126C171.583 311.876 171.531 311.609 171.531 311.324V308.96C171.531 308.675 171.583 308.408 171.687 308.158C171.798 307.908 171.944 307.693 172.125 307.512C172.312 307.325 172.531 307.179 172.781 307.075C173.031 306.964 173.298 306.908 173.583 306.908H180.071V308.96H173.583V311.324H178.446C178.731 311.324 178.995 311.38 179.238 311.491C179.488 311.595 179.707 311.741 179.894 311.928C180.082 312.109 180.227 312.324 180.332 312.574C180.443 312.824 180.498 313.091 180.498 313.376V315.948C180.498 316.233 180.443 316.5 180.332 316.75C180.227 317 180.082 317.219 179.894 317.406C179.707 317.587 179.488 317.733 179.238 317.844C178.995 317.948 178.731 318 178.446 318H171.531V315.948H178.446ZM186.008 318L182.425 306.908H184.498L187.122 315.271L189.57 306.908H191.663L194.111 315.271L196.735 306.908H198.808L195.225 318H193.09L190.611 309.855L188.143 318H186.008ZM210.546 315.948C210.546 316.233 210.49 316.5 210.379 316.75C210.275 317 210.129 317.219 209.942 317.406C209.761 317.587 209.546 317.733 209.296 317.844C209.053 317.948 208.789 318 208.504 318H202.995C202.717 318 202.453 317.948 202.203 317.844C201.953 317.733 201.735 317.587 201.547 317.406C201.367 317.219 201.221 317 201.11 316.75C201.005 316.5 200.953 316.233 200.953 315.948V308.96C200.953 308.675 201.005 308.408 201.11 308.158C201.221 307.908 201.367 307.693 201.547 307.512C201.735 307.325 201.953 307.179 202.203 307.075C202.453 306.964 202.717 306.908 202.995 306.908H208.504C208.789 306.908 209.053 306.964 209.296 307.075C209.546 307.179 209.761 307.325 209.942 307.512C210.129 307.693 210.275 307.908 210.379 308.158C210.49 308.408 210.546 308.675 210.546 308.96V315.948ZM202.995 308.96V315.948H208.504V308.96H202.995ZM216.014 308.96V318H213.972V306.908H216.014V308.866C216.027 308.595 216.09 308.342 216.201 308.106C216.312 307.863 216.458 307.654 216.638 307.481C216.826 307.3 217.041 307.161 217.284 307.064C217.527 306.96 217.788 306.908 218.065 306.908H220.242C220.527 306.908 220.791 306.964 221.034 307.075C221.284 307.179 221.502 307.325 221.69 307.512C221.877 307.693 222.023 307.908 222.127 308.158C222.238 308.408 222.294 308.675 222.294 308.96V310.834H220.242V308.96H216.014ZM224.845 308.96C224.845 308.675 224.898 308.408 225.002 308.158C225.113 307.908 225.259 307.693 225.439 307.512C225.627 307.325 225.845 307.179 226.095 307.075C226.345 306.964 226.609 306.908 226.887 306.908H232.605V302.638H234.656V318H232.605V316.125C232.584 316.382 232.514 316.625 232.396 316.854C232.278 317.083 232.126 317.285 231.938 317.458C231.758 317.625 231.549 317.757 231.313 317.854C231.077 317.951 230.827 318 230.563 318H226.887C226.609 318 226.345 317.948 226.095 317.844C225.845 317.733 225.627 317.587 225.439 317.406C225.259 317.219 225.113 317 225.002 316.75C224.898 316.5 224.845 316.233 224.845 315.948V308.96ZM226.887 315.948H232.605V308.96H226.887V315.948ZM238.073 314.886H241.187V318H238.073V314.886ZM238.073 306.908H241.187V310.022H238.073V306.908Z" fill="#181818"/>
<rect x="36" y="192" width="338" height="34" fill="#C4C4C4"/>
<rect x="36" y="257" width="338" height="34" fill="#C4C4C4"/>
<rect x="36" y="326" width="338" height="34" fill="#C4C4C4"/>
<path d="M279.41 66.8112C278.489 66.8112 277.612 66.6358 276.779 66.2851C275.968 65.9124 275.256 65.4302 274.642 64.8383C274.028 64.2245 273.546 63.5121 273.195 62.701C272.845 61.8681 272.669 60.9912 272.669 60.0706V46.5894C272.669 45.6688 272.845 44.8029 273.195 43.9918C273.546 43.1589 274.028 42.4464 274.642 41.8546C275.256 41.2408 275.968 40.7586 276.779 40.4078C277.612 40.0352 278.489 39.8489 279.41 39.8489H302.295C303.215 39.8489 304.081 40.0352 304.892 40.4078C305.725 40.7586 306.449 41.2408 307.063 41.8546C307.676 42.4464 308.159 43.1589 308.509 43.9918C308.86 44.8029 309.035 45.6688 309.035 46.5894V52.6724H302.295V46.5894H279.41V60.0706H302.295C303.215 60.0706 304.081 60.2459 304.892 60.5967C305.725 60.9474 306.449 61.4297 307.063 62.0434C307.676 62.6572 308.159 63.3806 308.509 64.2136C308.86 65.0246 309.035 65.8905 309.035 66.8112V80.2594C309.035 81.1801 308.86 82.0569 308.509 82.8899C308.159 83.701 307.676 84.4134 307.063 85.0271C306.449 85.6409 305.725 86.1232 304.892 86.4739C304.081 86.8246 303.215 87 302.295 87H278.752C277.831 87 276.955 86.8246 276.122 86.4739C275.311 86.1232 274.598 85.6409 273.984 85.0271C273.371 84.4134 272.888 83.701 272.538 82.8899C272.187 82.0569 272.012 81.1801 272.012 80.2594V74.2093H278.752V80.2594H302.295V66.8112H279.41ZM327.35 51.9819V87H320.873V51.9819H327.35ZM320.544 38.5007H327.679V45.2413H320.544V38.5007ZM338.497 58.4594C338.497 57.5607 338.661 56.7167 338.99 55.9276C339.341 55.1384 339.801 54.4589 340.371 53.889C340.963 53.2971 341.653 52.8368 342.442 52.508C343.231 52.1573 344.064 51.9819 344.941 51.9819H356.548C357.403 51.9819 358.214 52.1463 358.981 52.4751C359.749 52.782 360.417 53.2204 360.987 53.7903C361.579 54.3383 362.05 54.996 362.401 55.7632C362.774 56.5085 362.971 57.3086 362.993 58.1635V51.9819H369.47V94.6612C369.47 95.56 369.295 96.4039 368.944 97.1931C368.616 97.9822 368.155 98.6617 367.563 99.2317C366.993 99.8235 366.314 100.284 365.525 100.613C364.736 100.963 363.892 101.139 362.993 101.139H342.541V94.6612H362.993V85.6519H344.941C344.064 85.6519 343.231 85.4875 342.442 85.1587C341.653 84.8079 340.963 84.3476 340.371 83.7777C339.801 83.1858 339.341 82.4953 338.99 81.7062C338.661 80.917 338.497 80.0731 338.497 79.1744V58.4594ZM362.993 79.1744V58.4594H344.941V79.1744H362.993ZM411.229 87H404.752V58.4594H386.7V87H380.255V51.9819H386.7V58.1635C386.744 57.3086 386.941 56.5085 387.292 55.7632C387.643 54.996 388.103 54.3383 388.673 53.7903C389.265 53.2204 389.944 52.782 390.711 52.4751C391.479 52.1463 392.301 51.9819 393.178 51.9819H404.752C405.65 51.9819 406.494 52.1573 407.283 52.508C408.073 52.8368 408.752 53.2971 409.322 53.889C409.914 54.4589 410.374 55.1384 410.703 55.9276C411.054 56.7167 411.229 57.5607 411.229 58.4594V87ZM442.86 39.8489H449.601V80.2594H476.53V39.8489H483.271V80.2594C483.271 81.1801 483.096 82.0569 482.745 82.8899C482.394 83.701 481.912 84.4134 481.298 85.0271C480.684 85.6409 479.961 86.1232 479.128 86.4739C478.317 86.8246 477.451 87 476.53 87H449.601C448.68 87 447.804 86.8246 446.971 86.4739C446.16 86.1232 445.447 85.6409 444.833 85.0271C444.22 84.4134 443.737 83.701 443.387 82.8899C443.036 82.0569 442.86 81.1801 442.86 80.2594V39.8489ZM525.72 80.5225C525.72 81.4212 525.545 82.2652 525.194 83.0543C524.865 83.8434 524.405 84.5339 523.813 85.1258C523.243 85.6957 522.564 86.1561 521.775 86.5068C520.985 86.8356 520.141 87 519.243 87H501.191V101.139H494.746V51.9819H501.191V57.9004C501.257 57.0675 501.476 56.3002 501.849 55.5988C502.221 54.8754 502.693 54.2507 503.263 53.7246C503.833 53.1766 504.49 52.7491 505.235 52.4422C506.003 52.1353 506.814 51.9819 507.669 51.9819H519.243C520.141 51.9819 520.985 52.1573 521.775 52.508C522.564 52.8368 523.243 53.2971 523.813 53.889C524.405 54.4589 524.865 55.1384 525.194 55.9276C525.545 56.7167 525.72 57.5607 525.72 58.4594V80.5225ZM519.243 80.5225V58.4594H501.191V80.5225H519.243ZM538.873 69.5074L536.176 39.8489H545.317L542.621 69.5074H538.873ZM535.815 77.1686H545.646V87H535.815V77.1686Z" fill="black"/>
<path d="M36 393H195V435H36V393Z" fill="#119E79"/>
<path d="M90.4141 413.203C90.1953 413.203 89.987 413.161 89.7891 413.078C89.5964 412.99 89.4271 412.875 89.2812 412.734C89.1354 412.589 89.0208 412.419 88.9375 412.227C88.8542 412.029 88.8125 411.82 88.8125 411.602V408.398C88.8125 408.18 88.8542 407.974 88.9375 407.781C89.0208 407.583 89.1354 407.414 89.2812 407.273C89.4271 407.128 89.5964 407.013 89.7891 406.93C89.987 406.841 90.1953 406.797 90.4141 406.797H95.8516C96.0703 406.797 96.276 406.841 96.4688 406.93C96.6667 407.013 96.8385 407.128 96.9844 407.273C97.1302 407.414 97.2448 407.583 97.3281 407.781C97.4115 407.974 97.4531 408.18 97.4531 408.398V409.844H95.8516V408.398H90.4141V411.602H95.8516C96.0703 411.602 96.276 411.643 96.4688 411.727C96.6667 411.81 96.8385 411.924 96.9844 412.07C97.1302 412.216 97.2448 412.388 97.3281 412.586C97.4115 412.779 97.4531 412.984 97.4531 413.203V416.398C97.4531 416.617 97.4115 416.826 97.3281 417.023C97.2448 417.216 97.1302 417.385 96.9844 417.531C96.8385 417.677 96.6667 417.792 96.4688 417.875C96.276 417.958 96.0703 418 95.8516 418H90.2578C90.0391 418 89.8307 417.958 89.6328 417.875C89.4401 417.792 89.2708 417.677 89.125 417.531C88.9792 417.385 88.8646 417.216 88.7812 417.023C88.6979 416.826 88.6562 416.617 88.6562 416.398V414.961H90.2578V416.398H95.8516V413.203H90.4141ZM100.188 409.68H101.719V416.461H106.008V409.68H107.547V418H106.008V416.594C105.992 416.786 105.94 416.969 105.852 417.141C105.763 417.312 105.648 417.464 105.508 417.594C105.372 417.719 105.216 417.818 105.039 417.891C104.862 417.964 104.674 418 104.477 418H101.719C101.51 418 101.312 417.961 101.125 417.883C100.938 417.799 100.773 417.69 100.633 417.555C100.497 417.414 100.388 417.25 100.305 417.062C100.227 416.875 100.188 416.674 100.188 416.461V409.68ZM117.469 416.461C117.469 416.674 117.427 416.875 117.344 417.062C117.266 417.25 117.156 417.414 117.016 417.555C116.88 417.69 116.719 417.799 116.531 417.883C116.344 417.961 116.143 418 115.93 418H111.641C111.432 418 111.234 417.961 111.047 417.883C110.859 417.799 110.695 417.69 110.555 417.555C110.419 417.414 110.31 417.25 110.227 417.062C110.148 416.875 110.109 416.674 110.109 416.461V406.477H111.641V411.148C111.651 410.945 111.698 410.755 111.781 410.578C111.865 410.396 111.974 410.24 112.109 410.109C112.25 409.974 112.411 409.87 112.594 409.797C112.776 409.719 112.971 409.68 113.18 409.68H115.93C116.143 409.68 116.344 409.721 116.531 409.805C116.719 409.883 116.88 409.992 117.016 410.133C117.156 410.268 117.266 410.43 117.344 410.617C117.427 410.805 117.469 411.005 117.469 411.219V416.461ZM111.641 411.219V416.461H115.93V411.219H111.641ZM126.625 411.219V418H125.086V411.219H121.562V418H120.031V409.68H121.562V411.148C121.573 410.945 121.62 410.755 121.703 410.578C121.786 410.396 121.896 410.24 122.031 410.109C122.172 409.974 122.333 409.87 122.516 409.797C122.698 409.719 122.893 409.68 123.102 409.68H125.086C125.289 409.68 125.482 409.719 125.664 409.797C125.846 409.87 126.008 409.974 126.148 410.109C126.289 410.24 126.401 410.396 126.484 410.578C126.573 410.755 126.62 410.945 126.625 411.148C126.635 410.945 126.68 410.755 126.758 410.578C126.841 410.396 126.951 410.24 127.086 410.109C127.227 409.974 127.388 409.87 127.57 409.797C127.753 409.719 127.948 409.68 128.156 409.68H130.141C130.354 409.68 130.555 409.721 130.742 409.805C130.93 409.883 131.091 409.992 131.227 410.133C131.367 410.268 131.477 410.43 131.555 410.617C131.638 410.805 131.68 411.005 131.68 411.219V418H130.141V411.219H126.625ZM135.867 409.68V418H134.328V409.68H135.867ZM134.25 406.477H135.945V408.078H134.25V406.477ZM138.031 409.68H140.062V407.117H141.602V409.68H144.336V411.219H141.602V416.461H144.336V418H141.602C141.393 418 141.195 417.961 141.008 417.883C140.82 417.799 140.656 417.69 140.516 417.555C140.375 417.414 140.263 417.25 140.18 417.062C140.102 416.875 140.062 416.674 140.062 416.461V411.219H138.031V409.68Z" fill="#FAFAFA"/>
<defs>
<clipPath id="clip0_29_120">
<rect width="429" height="282" fill="white" transform="translate(374 153)"/>
</clipPath>
</defs>
</svg>
